<mxfile host="app.diagrams.net" modified="2023-10-11T16:17:48.757Z" agent="Mozilla/5.0 (Macintosh; Intel Mac OS X 10_14_6) AppleWebKit/605.1.15 (KHTML, like Gecko) Version/14.1.2 Safari/605.1.15" etag="uQ7_gzNW91s5HNLiXw7y" version="22.0.2" type="github">
  <diagram id="R2lEEEUBdFMjLlhIrx00" name="Page-1">
    <mxGraphModel dx="1471" dy="592" grid="1" gridSize="10" guides="1" tooltips="1" connect="1" arrows="1" fold="1" page="1" pageScale="1" pageWidth="850" pageHeight="1100" math="0" shadow="0" extFonts="Permanent Marker^https://fonts.googleapis.com/css?family=Permanent+Marker">
      <root>
        <mxCell id="0" />
        <mxCell id="1" parent="0" />
        <mxCell id="C-vyLk0tnHw3VtMMgP7b-13" value="Product" style="shape=table;startSize=30;container=1;collapsible=1;childLayout=tableLayout;fixedRows=1;rowLines=0;fontStyle=1;align=center;resizeLast=1;" parent="1" vertex="1">
          <mxGeometry x="260" y="270" width="250" height="130" as="geometry" />
        </mxCell>
        <mxCell id="C-vyLk0tnHw3VtMMgP7b-14" value="" style="shape=partialRectangle;collapsible=0;dropTarget=0;pointerEvents=0;fillColor=none;points=[[0,0.5],[1,0.5]];portConstraint=eastwest;top=0;left=0;right=0;bottom=1;" parent="C-vyLk0tnHw3VtMMgP7b-13" vertex="1">
          <mxGeometry y="30" width="250" height="30" as="geometry" />
        </mxCell>
        <mxCell id="C-vyLk0tnHw3VtMMgP7b-15" value="PK" style="shape=partialRectangle;overflow=hidden;connectable=0;fillColor=none;top=0;left=0;bottom=0;right=0;fontStyle=1;" parent="C-vyLk0tnHw3VtMMgP7b-14" vertex="1">
          <mxGeometry width="30" height="30" as="geometry">
            <mxRectangle width="30" height="30" as="alternateBounds" />
          </mxGeometry>
        </mxCell>
        <mxCell id="C-vyLk0tnHw3VtMMgP7b-16" value="item_id" style="shape=partialRectangle;overflow=hidden;connectable=0;fillColor=none;top=0;left=0;bottom=0;right=0;align=left;spacingLeft=6;fontStyle=5;" parent="C-vyLk0tnHw3VtMMgP7b-14" vertex="1">
          <mxGeometry x="30" width="220" height="30" as="geometry">
            <mxRectangle width="220" height="30" as="alternateBounds" />
          </mxGeometry>
        </mxCell>
        <mxCell id="C-vyLk0tnHw3VtMMgP7b-17" value="" style="shape=partialRectangle;collapsible=0;dropTarget=0;pointerEvents=0;fillColor=none;points=[[0,0.5],[1,0.5]];portConstraint=eastwest;top=0;left=0;right=0;bottom=0;" parent="C-vyLk0tnHw3VtMMgP7b-13" vertex="1">
          <mxGeometry y="60" width="250" height="30" as="geometry" />
        </mxCell>
        <mxCell id="C-vyLk0tnHw3VtMMgP7b-18" value="" style="shape=partialRectangle;overflow=hidden;connectable=0;fillColor=none;top=0;left=0;bottom=0;right=0;" parent="C-vyLk0tnHw3VtMMgP7b-17" vertex="1">
          <mxGeometry width="30" height="30" as="geometry">
            <mxRectangle width="30" height="30" as="alternateBounds" />
          </mxGeometry>
        </mxCell>
        <mxCell id="C-vyLk0tnHw3VtMMgP7b-19" value="item_name" style="shape=partialRectangle;overflow=hidden;connectable=0;fillColor=none;top=0;left=0;bottom=0;right=0;align=left;spacingLeft=6;" parent="C-vyLk0tnHw3VtMMgP7b-17" vertex="1">
          <mxGeometry x="30" width="220" height="30" as="geometry">
            <mxRectangle width="220" height="30" as="alternateBounds" />
          </mxGeometry>
        </mxCell>
        <mxCell id="C-vyLk0tnHw3VtMMgP7b-20" value="" style="shape=partialRectangle;collapsible=0;dropTarget=0;pointerEvents=0;fillColor=none;points=[[0,0.5],[1,0.5]];portConstraint=eastwest;top=0;left=0;right=0;bottom=0;" parent="C-vyLk0tnHw3VtMMgP7b-13" vertex="1">
          <mxGeometry y="90" width="250" height="30" as="geometry" />
        </mxCell>
        <mxCell id="C-vyLk0tnHw3VtMMgP7b-21" value="" style="shape=partialRectangle;overflow=hidden;connectable=0;fillColor=none;top=0;left=0;bottom=0;right=0;" parent="C-vyLk0tnHw3VtMMgP7b-20" vertex="1">
          <mxGeometry width="30" height="30" as="geometry">
            <mxRectangle width="30" height="30" as="alternateBounds" />
          </mxGeometry>
        </mxCell>
        <mxCell id="C-vyLk0tnHw3VtMMgP7b-22" value="item_price" style="shape=partialRectangle;overflow=hidden;connectable=0;fillColor=none;top=0;left=0;bottom=0;right=0;align=left;spacingLeft=6;" parent="C-vyLk0tnHw3VtMMgP7b-20" vertex="1">
          <mxGeometry x="30" width="220" height="30" as="geometry">
            <mxRectangle width="220" height="30" as="alternateBounds" />
          </mxGeometry>
        </mxCell>
        <mxCell id="C-vyLk0tnHw3VtMMgP7b-23" value="Customer" style="shape=table;startSize=30;container=1;collapsible=1;childLayout=tableLayout;fixedRows=1;rowLines=0;fontStyle=1;align=center;resizeLast=1;" parent="1" vertex="1">
          <mxGeometry x="260" y="110" width="250" height="130" as="geometry" />
        </mxCell>
        <mxCell id="C-vyLk0tnHw3VtMMgP7b-24" value="" style="shape=partialRectangle;collapsible=0;dropTarget=0;pointerEvents=0;fillColor=none;points=[[0,0.5],[1,0.5]];portConstraint=eastwest;top=0;left=0;right=0;bottom=1;" parent="C-vyLk0tnHw3VtMMgP7b-23" vertex="1">
          <mxGeometry y="30" width="250" height="30" as="geometry" />
        </mxCell>
        <mxCell id="C-vyLk0tnHw3VtMMgP7b-25" value="PK" style="shape=partialRectangle;overflow=hidden;connectable=0;fillColor=none;top=0;left=0;bottom=0;right=0;fontStyle=1;" parent="C-vyLk0tnHw3VtMMgP7b-24" vertex="1">
          <mxGeometry width="30" height="30" as="geometry">
            <mxRectangle width="30" height="30" as="alternateBounds" />
          </mxGeometry>
        </mxCell>
        <mxCell id="C-vyLk0tnHw3VtMMgP7b-26" value="customer_idÂ " style="shape=partialRectangle;overflow=hidden;connectable=0;fillColor=none;top=0;left=0;bottom=0;right=0;align=left;spacingLeft=6;fontStyle=5;" parent="C-vyLk0tnHw3VtMMgP7b-24" vertex="1">
          <mxGeometry x="30" width="220" height="30" as="geometry">
            <mxRectangle width="220" height="30" as="alternateBounds" />
          </mxGeometry>
        </mxCell>
        <mxCell id="C-vyLk0tnHw3VtMMgP7b-27" value="" style="shape=partialRectangle;collapsible=0;dropTarget=0;pointerEvents=0;fillColor=none;points=[[0,0.5],[1,0.5]];portConstraint=eastwest;top=0;left=0;right=0;bottom=0;" parent="C-vyLk0tnHw3VtMMgP7b-23" vertex="1">
          <mxGeometry y="60" width="250" height="30" as="geometry" />
        </mxCell>
        <mxCell id="C-vyLk0tnHw3VtMMgP7b-28" value="" style="shape=partialRectangle;overflow=hidden;connectable=0;fillColor=none;top=0;left=0;bottom=0;right=0;" parent="C-vyLk0tnHw3VtMMgP7b-27" vertex="1">
          <mxGeometry width="30" height="30" as="geometry">
            <mxRectangle width="30" height="30" as="alternateBounds" />
          </mxGeometry>
        </mxCell>
        <mxCell id="C-vyLk0tnHw3VtMMgP7b-29" value="customer_name" style="shape=partialRectangle;overflow=hidden;connectable=0;fillColor=none;top=0;left=0;bottom=0;right=0;align=left;spacingLeft=6;" parent="C-vyLk0tnHw3VtMMgP7b-27" vertex="1">
          <mxGeometry x="30" width="220" height="30" as="geometry">
            <mxRectangle width="220" height="30" as="alternateBounds" />
          </mxGeometry>
        </mxCell>
        <mxCell id="iJzH0nBKNdF1sdhEI1N1-1" value="" style="shape=partialRectangle;collapsible=0;dropTarget=0;pointerEvents=0;fillColor=none;points=[[0,0.5],[1,0.5]];portConstraint=eastwest;top=0;left=0;right=0;bottom=0;" vertex="1" parent="C-vyLk0tnHw3VtMMgP7b-23">
          <mxGeometry y="90" width="250" height="30" as="geometry" />
        </mxCell>
        <mxCell id="iJzH0nBKNdF1sdhEI1N1-2" value="FK" style="shape=partialRectangle;overflow=hidden;connectable=0;fillColor=none;top=0;left=0;bottom=0;right=0;" vertex="1" parent="iJzH0nBKNdF1sdhEI1N1-1">
          <mxGeometry width="30" height="30" as="geometry">
            <mxRectangle width="30" height="30" as="alternateBounds" />
          </mxGeometry>
        </mxCell>
        <mxCell id="iJzH0nBKNdF1sdhEI1N1-3" value="address_id" style="shape=partialRectangle;overflow=hidden;connectable=0;fillColor=none;top=0;left=0;bottom=0;right=0;align=left;spacingLeft=6;" vertex="1" parent="iJzH0nBKNdF1sdhEI1N1-1">
          <mxGeometry x="30" width="220" height="30" as="geometry">
            <mxRectangle width="220" height="30" as="alternateBounds" />
          </mxGeometry>
        </mxCell>
        <mxCell id="iJzH0nBKNdF1sdhEI1N1-10" value="Clerk" style="shape=table;startSize=30;container=1;collapsible=1;childLayout=tableLayout;fixedRows=1;rowLines=0;fontStyle=1;align=center;resizeLast=1;" vertex="1" parent="1">
          <mxGeometry x="260" y="430" width="250" height="130" as="geometry" />
        </mxCell>
        <mxCell id="iJzH0nBKNdF1sdhEI1N1-11" value="" style="shape=partialRectangle;collapsible=0;dropTarget=0;pointerEvents=0;fillColor=none;points=[[0,0.5],[1,0.5]];portConstraint=eastwest;top=0;left=0;right=0;bottom=1;" vertex="1" parent="iJzH0nBKNdF1sdhEI1N1-10">
          <mxGeometry y="30" width="250" height="30" as="geometry" />
        </mxCell>
        <mxCell id="iJzH0nBKNdF1sdhEI1N1-12" value="PK" style="shape=partialRectangle;overflow=hidden;connectable=0;fillColor=none;top=0;left=0;bottom=0;right=0;fontStyle=1;" vertex="1" parent="iJzH0nBKNdF1sdhEI1N1-11">
          <mxGeometry width="30" height="30" as="geometry">
            <mxRectangle width="30" height="30" as="alternateBounds" />
          </mxGeometry>
        </mxCell>
        <mxCell id="iJzH0nBKNdF1sdhEI1N1-13" value="clerk_id" style="shape=partialRectangle;overflow=hidden;connectable=0;fillColor=none;top=0;left=0;bottom=0;right=0;align=left;spacingLeft=6;fontStyle=5;" vertex="1" parent="iJzH0nBKNdF1sdhEI1N1-11">
          <mxGeometry x="30" width="220" height="30" as="geometry">
            <mxRectangle width="220" height="30" as="alternateBounds" />
          </mxGeometry>
        </mxCell>
        <mxCell id="iJzH0nBKNdF1sdhEI1N1-14" value="" style="shape=partialRectangle;collapsible=0;dropTarget=0;pointerEvents=0;fillColor=none;points=[[0,0.5],[1,0.5]];portConstraint=eastwest;top=0;left=0;right=0;bottom=0;" vertex="1" parent="iJzH0nBKNdF1sdhEI1N1-10">
          <mxGeometry y="60" width="250" height="30" as="geometry" />
        </mxCell>
        <mxCell id="iJzH0nBKNdF1sdhEI1N1-15" value="" style="shape=partialRectangle;overflow=hidden;connectable=0;fillColor=none;top=0;left=0;bottom=0;right=0;" vertex="1" parent="iJzH0nBKNdF1sdhEI1N1-14">
          <mxGeometry width="30" height="30" as="geometry">
            <mxRectangle width="30" height="30" as="alternateBounds" />
          </mxGeometry>
        </mxCell>
        <mxCell id="iJzH0nBKNdF1sdhEI1N1-16" value="clerk_name" style="shape=partialRectangle;overflow=hidden;connectable=0;fillColor=none;top=0;left=0;bottom=0;right=0;align=left;spacingLeft=6;" vertex="1" parent="iJzH0nBKNdF1sdhEI1N1-14">
          <mxGeometry x="30" width="220" height="30" as="geometry">
            <mxRectangle width="220" height="30" as="alternateBounds" />
          </mxGeometry>
        </mxCell>
        <mxCell id="iJzH0nBKNdF1sdhEI1N1-17" value="" style="shape=partialRectangle;collapsible=0;dropTarget=0;pointerEvents=0;fillColor=none;points=[[0,0.5],[1,0.5]];portConstraint=eastwest;top=0;left=0;right=0;bottom=0;" vertex="1" parent="iJzH0nBKNdF1sdhEI1N1-10">
          <mxGeometry y="90" width="250" height="40" as="geometry" />
        </mxCell>
        <mxCell id="iJzH0nBKNdF1sdhEI1N1-18" value="FK" style="shape=partialRectangle;overflow=hidden;connectable=0;fillColor=none;top=0;left=0;bottom=0;right=0;" vertex="1" parent="iJzH0nBKNdF1sdhEI1N1-17">
          <mxGeometry width="30" height="40" as="geometry">
            <mxRectangle width="30" height="40" as="alternateBounds" />
          </mxGeometry>
        </mxCell>
        <mxCell id="iJzH0nBKNdF1sdhEI1N1-19" value="address_id" style="shape=partialRectangle;overflow=hidden;connectable=0;fillColor=none;top=0;left=0;bottom=0;right=0;align=left;spacingLeft=6;" vertex="1" parent="iJzH0nBKNdF1sdhEI1N1-17">
          <mxGeometry x="30" width="220" height="40" as="geometry">
            <mxRectangle width="220" height="40" as="alternateBounds" />
          </mxGeometry>
        </mxCell>
        <mxCell id="C-vyLk0tnHw3VtMMgP7b-2" value="Order" style="shape=table;startSize=30;container=1;collapsible=1;childLayout=tableLayout;fixedRows=1;rowLines=0;fontStyle=1;align=center;resizeLast=1;" parent="1" vertex="1">
          <mxGeometry x="-60" y="240" width="250" height="160" as="geometry" />
        </mxCell>
        <mxCell id="C-vyLk0tnHw3VtMMgP7b-3" value="" style="shape=partialRectangle;collapsible=0;dropTarget=0;pointerEvents=0;fillColor=none;points=[[0,0.5],[1,0.5]];portConstraint=eastwest;top=0;left=0;right=0;bottom=1;" parent="C-vyLk0tnHw3VtMMgP7b-2" vertex="1">
          <mxGeometry y="30" width="250" height="30" as="geometry" />
        </mxCell>
        <mxCell id="C-vyLk0tnHw3VtMMgP7b-4" value="PK" style="shape=partialRectangle;overflow=hidden;connectable=0;fillColor=none;top=0;left=0;bottom=0;right=0;fontStyle=1;" parent="C-vyLk0tnHw3VtMMgP7b-3" vertex="1">
          <mxGeometry width="30" height="30" as="geometry">
            <mxRectangle width="30" height="30" as="alternateBounds" />
          </mxGeometry>
        </mxCell>
        <mxCell id="C-vyLk0tnHw3VtMMgP7b-5" value="order_idÂ " style="shape=partialRectangle;overflow=hidden;connectable=0;fillColor=none;top=0;left=0;bottom=0;right=0;align=left;spacingLeft=6;fontStyle=5;" parent="C-vyLk0tnHw3VtMMgP7b-3" vertex="1">
          <mxGeometry x="30" width="220" height="30" as="geometry">
            <mxRectangle width="220" height="30" as="alternateBounds" />
          </mxGeometry>
        </mxCell>
        <mxCell id="C-vyLk0tnHw3VtMMgP7b-6" value="" style="shape=partialRectangle;collapsible=0;dropTarget=0;pointerEvents=0;fillColor=none;points=[[0,0.5],[1,0.5]];portConstraint=eastwest;top=0;left=0;right=0;bottom=0;" parent="C-vyLk0tnHw3VtMMgP7b-2" vertex="1">
          <mxGeometry y="60" width="250" height="30" as="geometry" />
        </mxCell>
        <mxCell id="C-vyLk0tnHw3VtMMgP7b-7" value="FK" style="shape=partialRectangle;overflow=hidden;connectable=0;fillColor=none;top=0;left=0;bottom=0;right=0;" parent="C-vyLk0tnHw3VtMMgP7b-6" vertex="1">
          <mxGeometry width="30" height="30" as="geometry">
            <mxRectangle width="30" height="30" as="alternateBounds" />
          </mxGeometry>
        </mxCell>
        <mxCell id="C-vyLk0tnHw3VtMMgP7b-8" value="customer_id" style="shape=partialRectangle;overflow=hidden;connectable=0;fillColor=none;top=0;left=0;bottom=0;right=0;align=left;spacingLeft=6;" parent="C-vyLk0tnHw3VtMMgP7b-6" vertex="1">
          <mxGeometry x="30" width="220" height="30" as="geometry">
            <mxRectangle width="220" height="30" as="alternateBounds" />
          </mxGeometry>
        </mxCell>
        <mxCell id="C-vyLk0tnHw3VtMMgP7b-9" value="" style="shape=partialRectangle;collapsible=0;dropTarget=0;pointerEvents=0;fillColor=none;points=[[0,0.5],[1,0.5]];portConstraint=eastwest;top=0;left=0;right=0;bottom=0;" parent="C-vyLk0tnHw3VtMMgP7b-2" vertex="1">
          <mxGeometry y="90" width="250" height="30" as="geometry" />
        </mxCell>
        <mxCell id="C-vyLk0tnHw3VtMMgP7b-10" value="FK" style="shape=partialRectangle;overflow=hidden;connectable=0;fillColor=none;top=0;left=0;bottom=0;right=0;" parent="C-vyLk0tnHw3VtMMgP7b-9" vertex="1">
          <mxGeometry width="30" height="30" as="geometry">
            <mxRectangle width="30" height="30" as="alternateBounds" />
          </mxGeometry>
        </mxCell>
        <mxCell id="C-vyLk0tnHw3VtMMgP7b-11" value="product_id" style="shape=partialRectangle;overflow=hidden;connectable=0;fillColor=none;top=0;left=0;bottom=0;right=0;align=left;spacingLeft=6;" parent="C-vyLk0tnHw3VtMMgP7b-9" vertex="1">
          <mxGeometry x="30" width="220" height="30" as="geometry">
            <mxRectangle width="220" height="30" as="alternateBounds" />
          </mxGeometry>
        </mxCell>
        <mxCell id="iJzH0nBKNdF1sdhEI1N1-27" value="" style="shape=partialRectangle;collapsible=0;dropTarget=0;pointerEvents=0;fillColor=none;points=[[0,0.5],[1,0.5]];portConstraint=eastwest;top=0;left=0;right=0;bottom=0;" vertex="1" parent="C-vyLk0tnHw3VtMMgP7b-2">
          <mxGeometry y="120" width="250" height="30" as="geometry" />
        </mxCell>
        <mxCell id="iJzH0nBKNdF1sdhEI1N1-28" value="FK" style="shape=partialRectangle;overflow=hidden;connectable=0;fillColor=none;top=0;left=0;bottom=0;right=0;" vertex="1" parent="iJzH0nBKNdF1sdhEI1N1-27">
          <mxGeometry width="30" height="30" as="geometry">
            <mxRectangle width="30" height="30" as="alternateBounds" />
          </mxGeometry>
        </mxCell>
        <mxCell id="iJzH0nBKNdF1sdhEI1N1-29" value="clerk_id" style="shape=partialRectangle;overflow=hidden;connectable=0;fillColor=none;top=0;left=0;bottom=0;right=0;align=left;spacingLeft=6;" vertex="1" parent="iJzH0nBKNdF1sdhEI1N1-27">
          <mxGeometry x="30" width="220" height="30" as="geometry">
            <mxRectangle width="220" height="30" as="alternateBounds" />
          </mxGeometry>
        </mxCell>
        <mxCell id="iJzH0nBKNdF1sdhEI1N1-31" value="Address" style="shape=table;startSize=30;container=1;collapsible=1;childLayout=tableLayout;fixedRows=1;rowLines=0;fontStyle=1;align=center;resizeLast=1;" vertex="1" parent="1">
          <mxGeometry x="590" y="225" width="250" height="190" as="geometry" />
        </mxCell>
        <mxCell id="iJzH0nBKNdF1sdhEI1N1-32" value="" style="shape=partialRectangle;collapsible=0;dropTarget=0;pointerEvents=0;fillColor=none;points=[[0,0.5],[1,0.5]];portConstraint=eastwest;top=0;left=0;right=0;bottom=1;" vertex="1" parent="iJzH0nBKNdF1sdhEI1N1-31">
          <mxGeometry y="30" width="250" height="30" as="geometry" />
        </mxCell>
        <mxCell id="iJzH0nBKNdF1sdhEI1N1-33" value="PK" style="shape=partialRectangle;overflow=hidden;connectable=0;fillColor=none;top=0;left=0;bottom=0;right=0;fontStyle=1;" vertex="1" parent="iJzH0nBKNdF1sdhEI1N1-32">
          <mxGeometry width="30" height="30" as="geometry">
            <mxRectangle width="30" height="30" as="alternateBounds" />
          </mxGeometry>
        </mxCell>
        <mxCell id="iJzH0nBKNdF1sdhEI1N1-34" value="address_idÂ " style="shape=partialRectangle;overflow=hidden;connectable=0;fillColor=none;top=0;left=0;bottom=0;right=0;align=left;spacingLeft=6;fontStyle=5;" vertex="1" parent="iJzH0nBKNdF1sdhEI1N1-32">
          <mxGeometry x="30" width="220" height="30" as="geometry">
            <mxRectangle width="220" height="30" as="alternateBounds" />
          </mxGeometry>
        </mxCell>
        <mxCell id="iJzH0nBKNdF1sdhEI1N1-35" value="" style="shape=partialRectangle;collapsible=0;dropTarget=0;pointerEvents=0;fillColor=none;points=[[0,0.5],[1,0.5]];portConstraint=eastwest;top=0;left=0;right=0;bottom=0;" vertex="1" parent="iJzH0nBKNdF1sdhEI1N1-31">
          <mxGeometry y="60" width="250" height="30" as="geometry" />
        </mxCell>
        <mxCell id="iJzH0nBKNdF1sdhEI1N1-36" value="" style="shape=partialRectangle;overflow=hidden;connectable=0;fillColor=none;top=0;left=0;bottom=0;right=0;" vertex="1" parent="iJzH0nBKNdF1sdhEI1N1-35">
          <mxGeometry width="30" height="30" as="geometry">
            <mxRectangle width="30" height="30" as="alternateBounds" />
          </mxGeometry>
        </mxCell>
        <mxCell id="iJzH0nBKNdF1sdhEI1N1-37" value="house_nr" style="shape=partialRectangle;overflow=hidden;connectable=0;fillColor=none;top=0;left=0;bottom=0;right=0;align=left;spacingLeft=6;" vertex="1" parent="iJzH0nBKNdF1sdhEI1N1-35">
          <mxGeometry x="30" width="220" height="30" as="geometry">
            <mxRectangle width="220" height="30" as="alternateBounds" />
          </mxGeometry>
        </mxCell>
        <mxCell id="iJzH0nBKNdF1sdhEI1N1-38" value="" style="shape=partialRectangle;collapsible=0;dropTarget=0;pointerEvents=0;fillColor=none;points=[[0,0.5],[1,0.5]];portConstraint=eastwest;top=0;left=0;right=0;bottom=0;" vertex="1" parent="iJzH0nBKNdF1sdhEI1N1-31">
          <mxGeometry y="90" width="250" height="30" as="geometry" />
        </mxCell>
        <mxCell id="iJzH0nBKNdF1sdhEI1N1-39" value="" style="shape=partialRectangle;overflow=hidden;connectable=0;fillColor=none;top=0;left=0;bottom=0;right=0;" vertex="1" parent="iJzH0nBKNdF1sdhEI1N1-38">
          <mxGeometry width="30" height="30" as="geometry">
            <mxRectangle width="30" height="30" as="alternateBounds" />
          </mxGeometry>
        </mxCell>
        <mxCell id="iJzH0nBKNdF1sdhEI1N1-40" value="street" style="shape=partialRectangle;overflow=hidden;connectable=0;fillColor=none;top=0;left=0;bottom=0;right=0;align=left;spacingLeft=6;" vertex="1" parent="iJzH0nBKNdF1sdhEI1N1-38">
          <mxGeometry x="30" width="220" height="30" as="geometry">
            <mxRectangle width="220" height="30" as="alternateBounds" />
          </mxGeometry>
        </mxCell>
        <mxCell id="iJzH0nBKNdF1sdhEI1N1-41" value="" style="shape=partialRectangle;collapsible=0;dropTarget=0;pointerEvents=0;fillColor=none;points=[[0,0.5],[1,0.5]];portConstraint=eastwest;top=0;left=0;right=0;bottom=0;" vertex="1" parent="iJzH0nBKNdF1sdhEI1N1-31">
          <mxGeometry y="120" width="250" height="30" as="geometry" />
        </mxCell>
        <mxCell id="iJzH0nBKNdF1sdhEI1N1-42" value="" style="shape=partialRectangle;overflow=hidden;connectable=0;fillColor=none;top=0;left=0;bottom=0;right=0;" vertex="1" parent="iJzH0nBKNdF1sdhEI1N1-41">
          <mxGeometry width="30" height="30" as="geometry">
            <mxRectangle width="30" height="30" as="alternateBounds" />
          </mxGeometry>
        </mxCell>
        <mxCell id="iJzH0nBKNdF1sdhEI1N1-43" value="zipcode" style="shape=partialRectangle;overflow=hidden;connectable=0;fillColor=none;top=0;left=0;bottom=0;right=0;align=left;spacingLeft=6;" vertex="1" parent="iJzH0nBKNdF1sdhEI1N1-41">
          <mxGeometry x="30" width="220" height="30" as="geometry">
            <mxRectangle width="220" height="30" as="alternateBounds" />
          </mxGeometry>
        </mxCell>
        <mxCell id="iJzH0nBKNdF1sdhEI1N1-44" value="" style="shape=partialRectangle;collapsible=0;dropTarget=0;pointerEvents=0;fillColor=none;points=[[0,0.5],[1,0.5]];portConstraint=eastwest;top=0;left=0;right=0;bottom=0;" vertex="1" parent="iJzH0nBKNdF1sdhEI1N1-31">
          <mxGeometry y="150" width="250" height="30" as="geometry" />
        </mxCell>
        <mxCell id="iJzH0nBKNdF1sdhEI1N1-45" value="" style="shape=partialRectangle;overflow=hidden;connectable=0;fillColor=none;top=0;left=0;bottom=0;right=0;" vertex="1" parent="iJzH0nBKNdF1sdhEI1N1-44">
          <mxGeometry width="30" height="30" as="geometry">
            <mxRectangle width="30" height="30" as="alternateBounds" />
          </mxGeometry>
        </mxCell>
        <mxCell id="iJzH0nBKNdF1sdhEI1N1-46" value="country" style="shape=partialRectangle;overflow=hidden;connectable=0;fillColor=none;top=0;left=0;bottom=0;right=0;align=left;spacingLeft=6;" vertex="1" parent="iJzH0nBKNdF1sdhEI1N1-44">
          <mxGeometry x="30" width="220" height="30" as="geometry">
            <mxRectangle width="220" height="30" as="alternateBounds" />
          </mxGeometry>
        </mxCell>
        <mxCell id="iJzH0nBKNdF1sdhEI1N1-47" value="" style="edgeStyle=entityRelationEdgeStyle;fontSize=12;html=1;endArrow=ERoneToMany;startArrow=ERzeroToMany;rounded=0;exitX=1.004;exitY=0.092;exitDx=0;exitDy=0;entryX=0;entryY=0.5;entryDx=0;entryDy=0;exitPerimeter=0;" edge="1" parent="1" source="C-vyLk0tnHw3VtMMgP7b-9" target="C-vyLk0tnHw3VtMMgP7b-14">
          <mxGeometry width="100" height="100" relative="1" as="geometry">
            <mxPoint x="190" y="325" as="sourcePoint" />
            <mxPoint x="250" y="160" as="targetPoint" />
            <Array as="points">
              <mxPoint x="200" y="290" />
            </Array>
          </mxGeometry>
        </mxCell>
        <mxCell id="iJzH0nBKNdF1sdhEI1N1-49" value="" style="edgeStyle=entityRelationEdgeStyle;fontSize=12;html=1;endArrow=ERzeroToMany;startArrow=ERmandOne;rounded=0;exitX=0;exitY=0.5;exitDx=0;exitDy=0;entryX=1;entryY=0.5;entryDx=0;entryDy=0;" edge="1" parent="1" source="iJzH0nBKNdF1sdhEI1N1-32" target="iJzH0nBKNdF1sdhEI1N1-17">
          <mxGeometry width="100" height="100" relative="1" as="geometry">
            <mxPoint x="540" y="310" as="sourcePoint" />
            <mxPoint x="570" y="560" as="targetPoint" />
          </mxGeometry>
        </mxCell>
        <mxCell id="iJzH0nBKNdF1sdhEI1N1-50" value="" style="edgeStyle=entityRelationEdgeStyle;fontSize=12;html=1;endArrow=ERzeroToMany;startArrow=ERmandOne;rounded=0;entryX=1.018;entryY=0.896;entryDx=0;entryDy=0;entryPerimeter=0;" edge="1" parent="1" source="iJzH0nBKNdF1sdhEI1N1-32" target="iJzH0nBKNdF1sdhEI1N1-1">
          <mxGeometry width="100" height="100" relative="1" as="geometry">
            <mxPoint x="600" y="280" as="sourcePoint" />
            <mxPoint x="520" y="550" as="targetPoint" />
          </mxGeometry>
        </mxCell>
        <mxCell id="iJzH0nBKNdF1sdhEI1N1-52" value="" style="edgeStyle=entityRelationEdgeStyle;fontSize=12;html=1;endArrow=ERzeroToMany;endFill=1;rounded=0;entryX=0.994;entryY=0.935;entryDx=0;entryDy=0;entryPerimeter=0;" edge="1" parent="1" source="iJzH0nBKNdF1sdhEI1N1-11" target="iJzH0nBKNdF1sdhEI1N1-27">
          <mxGeometry width="100" height="100" relative="1" as="geometry">
            <mxPoint x="160" y="500" as="sourcePoint" />
            <mxPoint x="260" y="400" as="targetPoint" />
          </mxGeometry>
        </mxCell>
        <mxCell id="iJzH0nBKNdF1sdhEI1N1-53" value="" style="edgeStyle=entityRelationEdgeStyle;fontSize=12;html=1;endArrow=ERzeroToMany;startArrow=ERmandOne;rounded=0;exitX=0;exitY=0.5;exitDx=0;exitDy=0;entryX=1;entryY=0.5;entryDx=0;entryDy=0;" edge="1" parent="1" source="C-vyLk0tnHw3VtMMgP7b-24" target="C-vyLk0tnHw3VtMMgP7b-6">
          <mxGeometry width="100" height="100" relative="1" as="geometry">
            <mxPoint x="200" y="110" as="sourcePoint" />
            <mxPoint x="120" y="380" as="targetPoint" />
          </mxGeometry>
        </mxCell>
        <mxCell id="iJzH0nBKNdF1sdhEI1N1-55" value="" style="shape=table;startSize=0;container=1;collapsible=0;childLayout=tableLayout;" vertex="1" parent="1">
          <mxGeometry x="-30" y="640" width="230" height="80" as="geometry" />
        </mxCell>
        <mxCell id="iJzH0nBKNdF1sdhEI1N1-56" value="" style="shape=tableRow;horizontal=0;startSize=0;swimlaneHead=0;swimlaneBody=0;strokeColor=inherit;top=0;left=0;bottom=0;right=0;collapsible=0;dropTarget=0;fillColor=none;points=[[0,0.5],[1,0.5]];portConstraint=eastwest;" vertex="1" parent="iJzH0nBKNdF1sdhEI1N1-55">
          <mxGeometry width="230" height="40" as="geometry" />
        </mxCell>
        <mxCell id="iJzH0nBKNdF1sdhEI1N1-57" value="ID" style="shape=partialRectangle;html=1;whiteSpace=wrap;connectable=0;strokeColor=inherit;overflow=hidden;fillColor=none;top=0;left=0;bottom=0;right=0;pointerEvents=1;" vertex="1" parent="iJzH0nBKNdF1sdhEI1N1-56">
          <mxGeometry width="77" height="40" as="geometry">
            <mxRectangle width="77" height="40" as="alternateBounds" />
          </mxGeometry>
        </mxCell>
        <mxCell id="iJzH0nBKNdF1sdhEI1N1-58" value="Customer_ID" style="shape=partialRectangle;html=1;whiteSpace=wrap;connectable=0;strokeColor=inherit;overflow=hidden;fillColor=none;top=0;left=0;bottom=0;right=0;pointerEvents=1;" vertex="1" parent="iJzH0nBKNdF1sdhEI1N1-56">
          <mxGeometry x="77" width="76" height="40" as="geometry">
            <mxRectangle width="76" height="40" as="alternateBounds" />
          </mxGeometry>
        </mxCell>
        <mxCell id="iJzH0nBKNdF1sdhEI1N1-59" value="Clerk_ID" style="shape=partialRectangle;html=1;whiteSpace=wrap;connectable=0;strokeColor=inherit;overflow=hidden;fillColor=none;top=0;left=0;bottom=0;right=0;pointerEvents=1;" vertex="1" parent="iJzH0nBKNdF1sdhEI1N1-56">
          <mxGeometry x="153" width="77" height="40" as="geometry">
            <mxRectangle width="77" height="40" as="alternateBounds" />
          </mxGeometry>
        </mxCell>
        <mxCell id="iJzH0nBKNdF1sdhEI1N1-60" value="" style="shape=tableRow;horizontal=0;startSize=0;swimlaneHead=0;swimlaneBody=0;strokeColor=inherit;top=0;left=0;bottom=0;right=0;collapsible=0;dropTarget=0;fillColor=none;points=[[0,0.5],[1,0.5]];portConstraint=eastwest;" vertex="1" parent="iJzH0nBKNdF1sdhEI1N1-55">
          <mxGeometry y="40" width="230" height="40" as="geometry" />
        </mxCell>
        <mxCell id="iJzH0nBKNdF1sdhEI1N1-61" value="" style="shape=partialRectangle;html=1;whiteSpace=wrap;connectable=0;strokeColor=inherit;overflow=hidden;fillColor=none;top=0;left=0;bottom=0;right=0;pointerEvents=1;" vertex="1" parent="iJzH0nBKNdF1sdhEI1N1-60">
          <mxGeometry width="77" height="40" as="geometry">
            <mxRectangle width="77" height="40" as="alternateBounds" />
          </mxGeometry>
        </mxCell>
        <mxCell id="iJzH0nBKNdF1sdhEI1N1-62" value="" style="shape=partialRectangle;html=1;whiteSpace=wrap;connectable=0;strokeColor=inherit;overflow=hidden;fillColor=none;top=0;left=0;bottom=0;right=0;pointerEvents=1;" vertex="1" parent="iJzH0nBKNdF1sdhEI1N1-60">
          <mxGeometry x="77" width="76" height="40" as="geometry">
            <mxRectangle width="76" height="40" as="alternateBounds" />
          </mxGeometry>
        </mxCell>
        <mxCell id="iJzH0nBKNdF1sdhEI1N1-63" value="" style="shape=partialRectangle;html=1;whiteSpace=wrap;connectable=0;strokeColor=inherit;overflow=hidden;fillColor=none;top=0;left=0;bottom=0;right=0;pointerEvents=1;" vertex="1" parent="iJzH0nBKNdF1sdhEI1N1-60">
          <mxGeometry x="153" width="77" height="40" as="geometry">
            <mxRectangle width="77" height="40" as="alternateBounds" />
          </mxGeometry>
        </mxCell>
        <mxCell id="iJzH0nBKNdF1sdhEI1N1-64" value="" style="shape=table;startSize=0;container=1;collapsible=0;childLayout=tableLayout;" vertex="1" parent="1">
          <mxGeometry x="560" y="640" width="230" height="80" as="geometry" />
        </mxCell>
        <mxCell id="iJzH0nBKNdF1sdhEI1N1-65" value="" style="shape=tableRow;horizontal=0;startSize=0;swimlaneHead=0;swimlaneBody=0;strokeColor=inherit;top=0;left=0;bottom=0;right=0;collapsible=0;dropTarget=0;fillColor=none;points=[[0,0.5],[1,0.5]];portConstraint=eastwest;" vertex="1" parent="iJzH0nBKNdF1sdhEI1N1-64">
          <mxGeometry width="230" height="40" as="geometry" />
        </mxCell>
        <mxCell id="iJzH0nBKNdF1sdhEI1N1-66" value="ID" style="shape=partialRectangle;html=1;whiteSpace=wrap;connectable=0;strokeColor=inherit;overflow=hidden;fillColor=none;top=0;left=0;bottom=0;right=0;pointerEvents=1;" vertex="1" parent="iJzH0nBKNdF1sdhEI1N1-65">
          <mxGeometry width="77" height="40" as="geometry">
            <mxRectangle width="77" height="40" as="alternateBounds" />
          </mxGeometry>
        </mxCell>
        <mxCell id="iJzH0nBKNdF1sdhEI1N1-67" value="item_name" style="shape=partialRectangle;html=1;whiteSpace=wrap;connectable=0;strokeColor=inherit;overflow=hidden;fillColor=none;top=0;left=0;bottom=0;right=0;pointerEvents=1;" vertex="1" parent="iJzH0nBKNdF1sdhEI1N1-65">
          <mxGeometry x="77" width="76" height="40" as="geometry">
            <mxRectangle width="76" height="40" as="alternateBounds" />
          </mxGeometry>
        </mxCell>
        <mxCell id="iJzH0nBKNdF1sdhEI1N1-68" value="item_price" style="shape=partialRectangle;html=1;whiteSpace=wrap;connectable=0;strokeColor=inherit;overflow=hidden;fillColor=none;top=0;left=0;bottom=0;right=0;pointerEvents=1;" vertex="1" parent="iJzH0nBKNdF1sdhEI1N1-65">
          <mxGeometry x="153" width="77" height="40" as="geometry">
            <mxRectangle width="77" height="40" as="alternateBounds" />
          </mxGeometry>
        </mxCell>
        <mxCell id="iJzH0nBKNdF1sdhEI1N1-69" value="" style="shape=tableRow;horizontal=0;startSize=0;swimlaneHead=0;swimlaneBody=0;strokeColor=inherit;top=0;left=0;bottom=0;right=0;collapsible=0;dropTarget=0;fillColor=none;points=[[0,0.5],[1,0.5]];portConstraint=eastwest;" vertex="1" parent="iJzH0nBKNdF1sdhEI1N1-64">
          <mxGeometry y="40" width="230" height="40" as="geometry" />
        </mxCell>
        <mxCell id="iJzH0nBKNdF1sdhEI1N1-70" value="" style="shape=partialRectangle;html=1;whiteSpace=wrap;connectable=0;strokeColor=inherit;overflow=hidden;fillColor=none;top=0;left=0;bottom=0;right=0;pointerEvents=1;" vertex="1" parent="iJzH0nBKNdF1sdhEI1N1-69">
          <mxGeometry width="77" height="40" as="geometry">
            <mxRectangle width="77" height="40" as="alternateBounds" />
          </mxGeometry>
        </mxCell>
        <mxCell id="iJzH0nBKNdF1sdhEI1N1-71" value="" style="shape=partialRectangle;html=1;whiteSpace=wrap;connectable=0;strokeColor=inherit;overflow=hidden;fillColor=none;top=0;left=0;bottom=0;right=0;pointerEvents=1;" vertex="1" parent="iJzH0nBKNdF1sdhEI1N1-69">
          <mxGeometry x="77" width="76" height="40" as="geometry">
            <mxRectangle width="76" height="40" as="alternateBounds" />
          </mxGeometry>
        </mxCell>
        <mxCell id="iJzH0nBKNdF1sdhEI1N1-72" value="" style="shape=partialRectangle;html=1;whiteSpace=wrap;connectable=0;strokeColor=inherit;overflow=hidden;fillColor=none;top=0;left=0;bottom=0;right=0;pointerEvents=1;" vertex="1" parent="iJzH0nBKNdF1sdhEI1N1-69">
          <mxGeometry x="153" width="77" height="40" as="geometry">
            <mxRectangle width="77" height="40" as="alternateBounds" />
          </mxGeometry>
        </mxCell>
        <mxCell id="iJzH0nBKNdF1sdhEI1N1-86" value="" style="shape=table;startSize=0;container=1;collapsible=0;childLayout=tableLayout;" vertex="1" parent="1">
          <mxGeometry x="310" y="640" width="140" height="120" as="geometry" />
        </mxCell>
        <mxCell id="iJzH0nBKNdF1sdhEI1N1-87" value="" style="shape=tableRow;horizontal=0;startSize=0;swimlaneHead=0;swimlaneBody=0;strokeColor=inherit;top=0;left=0;bottom=0;right=0;collapsible=0;dropTarget=0;fillColor=none;points=[[0,0.5],[1,0.5]];portConstraint=eastwest;" vertex="1" parent="iJzH0nBKNdF1sdhEI1N1-86">
          <mxGeometry width="140" height="40" as="geometry" />
        </mxCell>
        <mxCell id="iJzH0nBKNdF1sdhEI1N1-88" value="Order_id" style="shape=partialRectangle;html=1;whiteSpace=wrap;connectable=0;strokeColor=inherit;overflow=hidden;fillColor=none;top=0;left=0;bottom=0;right=0;pointerEvents=1;" vertex="1" parent="iJzH0nBKNdF1sdhEI1N1-87">
          <mxGeometry width="70" height="40" as="geometry">
            <mxRectangle width="70" height="40" as="alternateBounds" />
          </mxGeometry>
        </mxCell>
        <mxCell id="iJzH0nBKNdF1sdhEI1N1-89" value="Product_id" style="shape=partialRectangle;html=1;whiteSpace=wrap;connectable=0;strokeColor=inherit;overflow=hidden;fillColor=none;top=0;left=0;bottom=0;right=0;pointerEvents=1;" vertex="1" parent="iJzH0nBKNdF1sdhEI1N1-87">
          <mxGeometry x="70" width="70" height="40" as="geometry">
            <mxRectangle width="70" height="40" as="alternateBounds" />
          </mxGeometry>
        </mxCell>
        <mxCell id="iJzH0nBKNdF1sdhEI1N1-90" value="" style="shape=tableRow;horizontal=0;startSize=0;swimlaneHead=0;swimlaneBody=0;strokeColor=inherit;top=0;left=0;bottom=0;right=0;collapsible=0;dropTarget=0;fillColor=none;points=[[0,0.5],[1,0.5]];portConstraint=eastwest;" vertex="1" parent="iJzH0nBKNdF1sdhEI1N1-86">
          <mxGeometry y="40" width="140" height="40" as="geometry" />
        </mxCell>
        <mxCell id="iJzH0nBKNdF1sdhEI1N1-91" value="" style="shape=partialRectangle;html=1;whiteSpace=wrap;connectable=0;strokeColor=inherit;overflow=hidden;fillColor=none;top=0;left=0;bottom=0;right=0;pointerEvents=1;" vertex="1" parent="iJzH0nBKNdF1sdhEI1N1-90">
          <mxGeometry width="70" height="40" as="geometry">
            <mxRectangle width="70" height="40" as="alternateBounds" />
          </mxGeometry>
        </mxCell>
        <mxCell id="iJzH0nBKNdF1sdhEI1N1-92" value="" style="shape=partialRectangle;html=1;whiteSpace=wrap;connectable=0;strokeColor=inherit;overflow=hidden;fillColor=none;top=0;left=0;bottom=0;right=0;pointerEvents=1;" vertex="1" parent="iJzH0nBKNdF1sdhEI1N1-90">
          <mxGeometry x="70" width="70" height="40" as="geometry">
            <mxRectangle width="70" height="40" as="alternateBounds" />
          </mxGeometry>
        </mxCell>
        <mxCell id="iJzH0nBKNdF1sdhEI1N1-93" value="" style="shape=tableRow;horizontal=0;startSize=0;swimlaneHead=0;swimlaneBody=0;strokeColor=inherit;top=0;left=0;bottom=0;right=0;collapsible=0;dropTarget=0;fillColor=none;points=[[0,0.5],[1,0.5]];portConstraint=eastwest;" vertex="1" parent="iJzH0nBKNdF1sdhEI1N1-86">
          <mxGeometry y="80" width="140" height="40" as="geometry" />
        </mxCell>
        <mxCell id="iJzH0nBKNdF1sdhEI1N1-94" value="" style="shape=partialRectangle;html=1;whiteSpace=wrap;connectable=0;strokeColor=inherit;overflow=hidden;fillColor=none;top=0;left=0;bottom=0;right=0;pointerEvents=1;" vertex="1" parent="iJzH0nBKNdF1sdhEI1N1-93">
          <mxGeometry width="70" height="40" as="geometry">
            <mxRectangle width="70" height="40" as="alternateBounds" />
          </mxGeometry>
        </mxCell>
        <mxCell id="iJzH0nBKNdF1sdhEI1N1-95" value="" style="shape=partialRectangle;html=1;whiteSpace=wrap;connectable=0;strokeColor=inherit;overflow=hidden;fillColor=none;top=0;left=0;bottom=0;right=0;pointerEvents=1;" vertex="1" parent="iJzH0nBKNdF1sdhEI1N1-93">
          <mxGeometry x="70" width="70" height="40" as="geometry">
            <mxRectangle width="70" height="40" as="alternateBounds" />
          </mxGeometry>
        </mxCell>
        <mxCell id="iJzH0nBKNdF1sdhEI1N1-96" value="Order" style="text;strokeColor=none;align=center;fillColor=none;html=1;verticalAlign=middle;whiteSpace=wrap;rounded=0;" vertex="1" parent="1">
          <mxGeometry x="-30" y="610" width="60" height="30" as="geometry" />
        </mxCell>
        <mxCell id="iJzH0nBKNdF1sdhEI1N1-97" value="Order_product" style="text;strokeColor=none;align=center;fillColor=none;html=1;verticalAlign=middle;whiteSpace=wrap;rounded=0;" vertex="1" parent="1">
          <mxGeometry x="310" y="610" width="80" height="30" as="geometry" />
        </mxCell>
        <mxCell id="iJzH0nBKNdF1sdhEI1N1-98" value="Product" style="text;strokeColor=none;align=center;fillColor=none;html=1;verticalAlign=middle;whiteSpace=wrap;rounded=0;" vertex="1" parent="1">
          <mxGeometry x="560" y="610" width="60" height="30" as="geometry" />
        </mxCell>
      </root>
    </mxGraphModel>
  </diagram>
</mxfile>
